# xmcd
#
# Track frame offsets:
#	182
#	18147
#	31047
#	52745
#	71905
#	88527
#	105485
#	128162
#	144945
#	158002
#
# Disc length: 2411 seconds
#
# Revision: 3
# Processed by: cddbd v1.5.2PL0 Copyright (c) Steve Scherf et al.
# Submitted via: audiograbber 1.83.01
#
DISCID=6e09690a
DTITLE=Status Quo - Never Too Late
DYEAR=1981
DGENRE=Rock
TTITLE0=Never Too Late
TTITLE1=Something 'Bout You Baby I Like
TTITLE2=Take Me Away
TTITLE3=Falling In Falling Out
TTITLE4=Carol
TTITLE5=Long Ago
TTITLE6=Mountain Lady
TTITLE7=Don't Stop Me Now
TTITLE8=Enough Is Enough
TTITLE9=Riverside
EXTD=
EXTT0=
EXTT1=
EXTT2=
EXTT3=
EXTT4=
EXTT5=
EXTT6=
EXTT7=
EXTT8=
EXTT9=
PLAYORDER=
